<svg width="1366" height="69" viewBox="0 0 1366 69" fill="none" xmlns="http://www.w3.org/2000/svg">
<path fill-rule="evenodd" clip-rule="evenodd" d="M0 0L5.45058e-07 59.6772C1.79161 60.0378 3.56151 60.4451 5.32943 60.852L5.32949 60.852C9.3978 61.7884 13.4556 62.7224 17.7433 63.078C21.0554 63.4181 23.6579 64.0983 26.2602 65.4586C30.7552 67.8392 35.4868 69.3695 41.6378 68.1793C43.8377 67.7431 45.9404 67.1845 48.0394 66.6269L48.0406 66.6265C52.487 65.4452 56.9169 64.2683 62.2201 64.2683C70.526 64.2683 79.2579 62.7373 87.6073 61.2733L87.8259 61.235C88.2024 61.169 88.5786 61.103 88.9533 61.0375C93.6849 60.1873 97.7067 60.8675 101.965 62.5679C108.353 65.1185 114.977 65.1185 122.311 64.0983C124.318 63.8167 126.336 63.4478 128.362 63.0773C136.123 61.658 144.003 60.217 151.883 63.5881C153.539 64.2683 156.141 64.2683 158.034 63.7582C161.921 62.7865 165.807 62.6824 169.694 62.5783L169.696 62.5782C171.25 62.5366 172.804 62.495 174.358 62.3979C176.294 62.2713 178.23 62.103 180.17 61.9343L180.172 61.9341L180.173 61.9341L180.173 61.934C186.054 61.4227 191.968 60.9084 198.016 61.5476C200.145 61.7177 203.93 61.2076 204.64 60.1873C208.898 54.5759 215.759 53.7257 223.566 53.2156C223.849 53.1987 224.129 53.18 224.407 53.1616L224.412 53.1613C226.922 52.9945 229.221 52.8417 231.136 54.0658C232.793 55.0861 234.685 55.4261 236.814 55.4261C239.535 55.5112 242.256 55.6812 244.976 55.8513C247.697 56.0213 250.418 56.1913 253.138 56.2764C257.633 56.4464 261.655 55.5962 264.731 52.8755C266.15 51.5152 268.043 51.1751 270.172 50.835C275.14 50.1548 279.872 51.0051 284.13 52.8755C287.205 54.0658 289.808 54.0658 293.12 53.8958C297.023 53.5557 300.986 53.3431 304.949 53.1306C308.911 52.918 312.874 52.7055 316.778 52.3654C319.617 52.0992 322.393 52.4813 325.137 52.8593L325.138 52.8594C327.652 53.2055 330.141 53.5482 332.628 53.3857C341.855 52.7055 350.845 52.7055 359.835 54.576C362.567 55.1115 365.444 55.3347 368.334 55.5589C373.702 55.9753 379.116 56.3953 383.729 58.827C384.21 59.0576 384.801 58.9754 385.352 58.8987C385.614 58.8622 385.867 58.827 386.095 58.827C389.644 58.4869 393.192 58.1468 396.741 59.3371C398.397 60.0173 400.526 59.5072 401.472 58.4869C404.548 55.2561 408.097 55.9363 411.882 57.6367C412.828 58.0901 413.775 58.0901 414.791 58.0901C415.299 58.0901 415.825 58.0901 416.377 58.1468C419.921 58.26 423.492 58.1471 427.071 58.0339C434.243 57.807 441.45 57.579 448.552 59.1671C451.706 59.8958 454.967 59.8534 458.233 59.811C461.827 59.7643 465.427 59.7176 468.897 60.6974C469.594 60.8977 470.372 60.7443 471.184 60.5842C471.751 60.4724 472.335 60.3574 472.919 60.3574C474.834 60.1853 476.265 59.3169 477.609 58.5007C478.922 57.7037 480.153 56.9565 481.672 56.9565C492.318 56.6165 502.728 56.1063 512.191 52.1954C513.137 51.8553 514.557 51.8553 515.74 52.0253C520.927 52.9201 525.932 51.9839 530.914 51.0518C531.322 50.9756 531.729 50.8994 532.137 50.8242C532.428 50.7704 532.719 50.7173 533.01 50.665C533.92 50.5342 534.83 50.3954 535.739 50.2565C540.744 49.4928 545.749 48.7291 550.753 49.3047C551.91 49.4605 552.978 49.6958 554.032 49.9279C556.427 50.4555 558.751 50.9673 561.872 50.495C563.848 50.1399 565.837 49.8122 567.827 49.4844C574.413 48.3996 581.009 47.313 587.186 45.2237C590.735 44.0334 594.047 43.6933 597.595 43.8633C599.015 43.8633 600.198 43.8633 601.617 43.6933C603.91 43.4108 606.203 43.0109 608.506 42.6093L608.507 42.6091L608.509 42.6086C614.522 41.5599 620.603 40.4993 626.931 41.4828C628.193 41.7095 629.244 41.3316 630.296 40.9537C630.822 40.7648 631.347 40.5759 631.899 40.4625C632.5 40.325 633.105 40.1807 633.712 40.0357L633.72 40.0338C638.369 38.9235 643.204 37.769 648.223 39.2722C652.008 40.2924 655.557 40.6325 659.579 40.8026C674.483 41.1427 688.441 44.3735 701.926 48.6245C705.475 49.6447 708.314 49.6447 711.626 48.9646C713.318 48.6267 714.936 48.1545 716.538 47.6868L716.539 47.6866C718.968 46.9776 721.362 46.2788 723.928 46.0739C730.552 45.5638 737.176 46.2439 743.564 47.9443C743.679 47.9799 743.798 48.0171 743.92 48.0552C745.545 48.5639 747.685 49.2336 749.005 48.2844C753.59 45.4598 757.772 46.69 762.109 47.9658L762.114 47.9675C762.475 48.0736 762.837 48.18 763.2 48.2844C768.878 50.1549 774.082 49.1346 778.577 45.7338C780.234 44.3735 782.363 43.6933 784.965 43.6933C793.009 43.3532 800.816 42.1629 807.677 38.9321C808.111 38.7587 808.555 38.55 809.013 38.3347C810.8 37.4944 812.799 36.5549 815.247 37.2317C818.623 38.114 822.22 38.3923 825.828 38.6714C830.563 39.0377 835.318 39.4054 839.615 41.1427C844.109 43.0131 847.895 43.1832 853.336 41.3127C861.853 38.252 871.079 39.2722 879.833 42.6731C880.605 42.9903 881.372 43.3322 882.141 43.6751C886.318 45.5378 890.562 47.4306 896.157 45.5638C896.348 45.4265 896.847 45.6218 897.281 45.7916C897.385 45.8321 897.485 45.8711 897.576 45.9038C899.737 47.0484 902.227 47.7999 904.728 48.5552C907.43 49.3709 910.147 50.1909 912.48 51.5152C921.944 57.1266 932.826 58.9971 944.892 56.1064C945.531 55.9915 946.278 56.0318 946.987 56.0701L946.988 56.0701C947.328 56.0885 947.66 56.1064 947.967 56.1064C951.221 56.4856 954.573 56.5594 957.939 56.6335C963.625 56.7586 969.35 56.8846 974.7 58.4869C975.174 58.657 976.12 58.4869 976.593 58.3169C978.391 57.168 980.358 57.3533 982.352 57.5411L982.356 57.5416C982.722 57.576 983.088 57.6104 983.454 57.6367C985.82 57.7217 988.126 57.8493 990.433 57.9768L990.433 57.9768C992.74 58.1044 995.046 58.2319 997.412 58.3169C1002.55 58.555 1006.87 57.0433 1011.19 55.5316C1013.04 54.8838 1014.89 54.2359 1016.81 53.7258C1017.09 53.6549 1017.36 53.5829 1017.64 53.5109C1020.68 52.7185 1023.71 51.9262 1026.75 52.7055C1035.74 54.746 1044.49 56.9566 1053.24 59.6772C1055.06 60.2487 1056.93 60.3499 1058.81 60.4511C1060.84 60.5607 1062.87 60.6704 1064.84 61.3777C1075.01 65.1186 1086.13 66.1388 1097.72 65.2886C1098.62 65.2239 1099.52 65.1511 1100.43 65.0779C1106.67 64.5744 1113.05 64.0601 1119.25 66.1388C1122.32 67.1591 1126.35 68.0093 1129.9 67.6692L1130.72 67.5818C1138.47 66.7615 1146.02 65.963 1153.79 65.7987C1155.84 65.7461 1157.89 65.4818 1159.94 65.2175L1159.94 65.2173C1164.51 64.6274 1169.09 64.0376 1173.66 65.7987C1176.97 66.989 1180.05 65.7987 1182.89 64.6085C1191.41 61.3777 1199.92 58.657 1210.1 59.3372C1214.33 59.4974 1218.15 60.2617 1222.14 61.0608L1222.87 61.2076C1225.71 61.7177 1228.78 62.0578 1230.2 59.8473C1232.1 56.9566 1235.17 56.7865 1238.48 56.7865C1239.83 56.7865 1241.17 56.8054 1242.51 56.8243C1245.19 56.8621 1247.87 56.8999 1250.55 56.7865C1257.17 56.2764 1263.33 56.2764 1269.71 57.9768C1270.62 58.2375 1271.53 58.5231 1272.44 58.8098C1276.27 60.0192 1280.17 61.2473 1284.38 60.6975C1287.69 60.3574 1291 60.6975 1294.08 61.3777C1300.94 62.738 1308.51 63.5882 1314.66 61.7177C1322.71 59.0807 1331.17 58.0771 1339.55 57.0831C1345.22 56.4106 1350.86 55.7425 1356.3 54.576C1359.61 53.8958 1362.92 54.2359 1366 54.576V0H0Z" fill="white"/>
</svg>
